<svg xmlns="http://www.w3.org/2000/svg" xmlns:xlink="http://www.w3.org/1999/xlink" width="500" zoomAndPan="magnify" viewBox="0 0 375 374.999991" height="500" preserveAspectRatio="xMidYMid meet" version="1.0"><defs><g/><clipPath id="3d58493ad6"><path d="M 143.113281 120.285156 L 231.613281 120.285156 L 231.613281 174 L 143.113281 174 Z M 143.113281 120.285156 " clip-rule="nonzero"/></clipPath><clipPath id="0f63db9e57"><path d="M 175 177 L 191 177 L 191 192.285156 L 175 192.285156 Z M 175 177 " clip-rule="nonzero"/></clipPath><clipPath id="723345b0fa"><path d="M 199 177 L 214 177 L 214 192.285156 L 199 192.285156 Z M 199 177 " clip-rule="nonzero"/></clipPath><clipPath id="e2aa7e7193"><path d="M 193 120.285156 L 200 120.285156 L 200 151 L 193 151 Z M 193 120.285156 " clip-rule="nonzero"/></clipPath></defs><g clip-path="url(#3d58493ad6)"><path fill="#f48321" d="M 212.59375 153.585938 L 197.699219 168.257812 L 196.382812 169.554688 L 195.082031 168.238281 L 180.429688 153.320312 C 179.566406 152.441406 179.09375 151.273438 179.101562 150.035156 C 179.113281 148.804688 179.605469 147.648438 180.484375 146.78125 C 181.363281 145.914062 182.527344 145.441406 183.761719 145.453125 C 184.992188 145.460938 186.148438 145.953125 187.015625 146.832031 L 196.484375 156.480469 L 206.117188 146.992188 C 206.996094 146.125 208.160156 145.65625 209.398438 145.667969 C 210.632812 145.679688 211.785156 146.164062 212.648438 147.042969 C 213.511719 147.925781 213.984375 149.089844 213.976562 150.328125 C 213.964844 151.558594 213.472656 152.722656 212.59375 153.585938 Z M 230.546875 139.1875 C 229.503906 137.480469 227.679688 136.453125 225.671875 136.4375 L 201.269531 136.238281 L 201.183594 147.335938 C 201.160156 149.886719 199.074219 151.941406 196.523438 151.921875 C 193.976562 151.898438 191.921875 149.808594 191.945312 147.261719 L 192.035156 136.160156 L 168.703125 135.96875 L 166.800781 128.898438 C 165.5625 124.328125 161.398438 121.109375 156.679688 121.070312 L 146.90625 120.992188 C 144.867188 120.976562 143.195312 122.617188 143.179688 124.65625 C 143.164062 126.699219 144.800781 128.375 146.847656 128.390625 L 156.617188 128.472656 C 158.039062 128.480469 159.300781 129.453125 159.671875 130.832031 L 169.902344 168.722656 C 170.558594 171.234375 172.832031 172.996094 175.425781 173.015625 L 213.214844 173.332031 C 215.421875 173.347656 217.480469 172.082031 218.457031 170.09375 L 230.824219 144.75 C 231.699219 142.933594 231.589844 140.851562 230.546875 139.1875 " fill-opacity="1" fill-rule="nonzero"/></g><g clip-path="url(#0f63db9e57)"><path fill="#353148" d="M 183.386719 177.246094 C 179.308594 177.214844 175.96875 180.496094 175.9375 184.585938 C 175.90625 188.667969 179.183594 192.011719 183.265625 192.042969 C 187.34375 192.078125 190.683594 188.792969 190.714844 184.710938 C 190.746094 180.621094 187.46875 177.285156 183.386719 177.246094 " fill-opacity="1" fill-rule="nonzero"/></g><g clip-path="url(#723345b0fa)"><path fill="#353148" d="M 206.472656 177.433594 C 202.394531 177.402344 199.058594 180.6875 199.027344 184.773438 C 198.992188 188.863281 202.273438 192.199219 206.355469 192.234375 C 210.433594 192.265625 213.769531 188.980469 213.804688 184.898438 C 213.835938 180.808594 210.554688 177.472656 206.472656 177.433594 " fill-opacity="1" fill-rule="nonzero"/></g><g clip-path="url(#e2aa7e7193)"><path fill="#353148" d="M 196.539062 150.070312 C 198.070312 150.085938 199.320312 148.855469 199.332031 147.320312 L 199.425781 136.222656 L 199.53125 123.277344 C 199.542969 121.742188 198.3125 120.488281 196.78125 120.476562 C 195.253906 120.460938 194.003906 121.691406 193.988281 123.226562 L 193.886719 136.179688 L 193.792969 147.269531 C 193.785156 148.804688 195.011719 150.058594 196.539062 150.070312 " fill-opacity="1" fill-rule="nonzero"/></g><path fill="#353148" d="M 209.378906 147.515625 C 208.667969 147.507812 207.960938 147.773438 207.417969 148.308594 L 196.46875 159.09375 L 185.699219 148.128906 C 185.160156 147.585938 184.453125 147.308594 183.746094 147.304688 C 183.035156 147.296875 182.324219 147.5625 181.777344 148.097656 C 180.6875 149.171875 180.671875 150.933594 181.746094 152.023438 L 196.398438 166.941406 L 211.300781 152.265625 C 212.390625 151.191406 212.40625 149.4375 211.332031 148.347656 C 210.800781 147.796875 210.085938 147.519531 209.378906 147.515625 " fill-opacity="1" fill-rule="nonzero"/><g fill="#353148" fill-opacity="1"><g transform="translate(125.463417, 231.91349)"><g><path d="M 2.957031 0 L 8.496094 0 L 8.496094 -8.929688 L 13.886719 -8.929688 L 22.035156 0 L 28.589844 0 L 18.5 -10.902344 L 18.5 -11.074219 L 27.371094 -21.542969 L 20.789062 -21.542969 L 13.886719 -12.988281 L 8.496094 -12.988281 L 8.496094 -21.542969 L 2.957031 -21.542969 Z M 2.957031 0 "/></g></g></g><g fill="#353148" fill-opacity="1"><g transform="translate(162.488505, 231.91349)"><g><path d="M 2.957031 0 L 8.496094 0 L 8.496094 -21.542969 L 2.957031 -21.542969 Z M 2.957031 0 "/></g></g></g><g fill="#353148" fill-opacity="1"><g transform="translate(182.002325, 231.91349)"><g><path d="M 2.957031 0 L 17.308594 0 C 27.023438 0 31.054688 -5.101562 31.054688 -10.757812 C 31.054688 -16.671875 26.644531 -21.542969 17.308594 -21.542969 L 2.957031 -21.542969 Z M 8.496094 -4.03125 L 8.496094 -17.511719 L 16.296875 -17.511719 C 22.066406 -17.511719 25.457031 -15.308594 25.457031 -10.757812 C 25.457031 -6.058594 21.832031 -4.03125 16.296875 -4.03125 Z M 8.496094 -4.03125 "/></g></g></g><g fill="#353148" fill-opacity="1"><g transform="translate(222.274533, 231.91349)"><g><path d="M 14.003906 0.523438 C 21.804688 0.523438 26.09375 -1.625 26.09375 -6.203125 C 26.09375 -9.191406 24.789062 -11.800781 13.6875 -12.902344 C 8.175781 -13.425781 7.65625 -14.441406 7.65625 -15.65625 C 7.65625 -17.050781 9.132812 -18.152344 13.597656 -18.152344 C 18.558594 -18.152344 20.09375 -16.382812 20.382812 -14.441406 L 25.542969 -14.441406 C 25.109375 -18.816406 21.628906 -22.007812 13.367188 -22.007812 C 4.957031 -22.007812 2.058594 -19.019531 2.058594 -15.773438 C 2.058594 -12.4375 3.769531 -9.917969 13.164062 -8.960938 C 19.832031 -8.292969 20.527344 -7.597656 20.527344 -6.058594 C 20.527344 -4.261719 18.585938 -3.335938 14.003906 -3.335938 C 8.378906 -3.335938 6.699219 -4.988281 6.554688 -7.132812 L 1.160156 -7.132812 C 1.390625 -3.042969 5.046875 0.523438 14.003906 0.523438 Z M 14.003906 0.523438 "/></g></g></g><g fill="#f48321" fill-opacity="1"><g transform="translate(125.206473, 251.613514)"><g><path d="M 4.339844 0.238281 C 6.757812 0.238281 8.300781 -0.894531 8.300781 -2.910156 C 8.300781 -4.714844 7.472656 -5.652344 4.6875 -6.492188 C 3.835938 -6.773438 3.414062 -6.996094 3.414062 -7.558594 L 3.414062 -7.570312 C 3.414062 -7.992188 3.667969 -8.3125 4.296875 -8.3125 C 5.082031 -8.3125 5.347656 -7.851562 5.359375 -7.125 L 8.132812 -7.125 C 8.144531 -9.277344 6.886719 -10.636719 4.28125 -10.636719 C 1.847656 -10.636719 0.449219 -9.476562 0.449219 -7.585938 L 0.449219 -7.570312 C 0.449219 -5.90625 1.160156 -5.136719 3.429688 -4.378906 C 4.898438 -3.820312 5.304688 -3.679688 5.304688 -2.925781 C 5.304688 -2.421875 5.011719 -2.070312 4.351562 -2.070312 C 3.441406 -2.070312 3.203125 -2.644531 3.203125 -3.304688 L 0.308594 -3.304688 C 0.320312 -0.980469 1.695312 0.238281 4.339844 0.238281 Z M 4.339844 0.238281 "/></g></g></g><g fill="#f48321" fill-opacity="1"><g transform="translate(141.763688, 251.613514)"><g><path d="M 5.90625 0 L 8.929688 0 L 8.929688 -10.414062 L 5.90625 -10.414062 L 5.90625 -6.480469 L 3.722656 -6.480469 L 3.722656 -10.414062 L 0.714844 -10.414062 L 0.714844 0 L 3.722656 0 L 3.722656 -4.03125 L 5.90625 -4.03125 Z M 5.90625 0 "/></g></g></g><g fill="#f48321" fill-opacity="1"><g transform="translate(159.356318, 251.613514)"><g><path d="M 4.675781 0.238281 C 7.445312 0.238281 8.871094 -1.300781 8.871094 -4.269531 L 8.871094 -6.128906 C 8.871094 -9.082031 7.445312 -10.636719 4.660156 -10.636719 C 1.890625 -10.636719 0.460938 -9.082031 0.460938 -6.128906 L 0.460938 -4.269531 C 0.460938 -1.300781 1.890625 0.238281 4.675781 0.238281 Z M 3.484375 -3.945312 L 3.484375 -6.453125 C 3.484375 -7.597656 3.90625 -8.117188 4.675781 -8.117188 C 5.445312 -8.117188 5.851562 -7.597656 5.851562 -6.453125 L 5.851562 -3.945312 C 5.851562 -2.800781 5.445312 -2.28125 4.675781 -2.28125 C 3.90625 -2.28125 3.484375 -2.800781 3.484375 -3.945312 Z M 3.484375 -3.945312 "/></g></g></g><g fill="#f48321" fill-opacity="1"><g transform="translate(176.641127, 251.613514)"><g><path d="M 0.714844 0 L 3.722656 0 L 3.722656 -2.601562 L 5.164062 -2.601562 C 7.332031 -2.601562 8.734375 -3.847656 8.734375 -6.480469 L 8.734375 -6.660156 C 8.734375 -9.179688 7.277344 -10.414062 4.925781 -10.414062 L 0.714844 -10.414062 Z M 3.722656 -5.039062 L 3.722656 -7.964844 L 4.578125 -7.964844 C 5.332031 -7.964844 5.722656 -7.597656 5.722656 -6.589844 L 5.722656 -6.464844 C 5.722656 -5.332031 5.261719 -5.039062 4.546875 -5.039062 Z M 3.722656 -5.039062 "/></g></g></g><g fill="#f48321" fill-opacity="1"><g transform="translate(193.478183, 251.613514)"><g><path d="M 0.714844 0 L 3.722656 0 L 3.722656 -2.601562 L 5.164062 -2.601562 C 7.332031 -2.601562 8.734375 -3.847656 8.734375 -6.480469 L 8.734375 -6.660156 C 8.734375 -9.179688 7.277344 -10.414062 4.925781 -10.414062 L 0.714844 -10.414062 Z M 3.722656 -5.039062 L 3.722656 -7.964844 L 4.578125 -7.964844 C 5.332031 -7.964844 5.722656 -7.597656 5.722656 -6.589844 L 5.722656 -6.464844 C 5.722656 -5.332031 5.261719 -5.039062 4.546875 -5.039062 Z M 3.722656 -5.039062 "/></g></g></g><g fill="#f48321" fill-opacity="1"><g transform="translate(210.315238, 251.613514)"><g><path d="M 0.714844 0 L 3.722656 0 L 3.722656 -10.414062 L 0.714844 -10.414062 Z M 0.714844 0 "/></g></g></g><g fill="#f48321" fill-opacity="1"><g transform="translate(222.716776, 251.613514)"><g><path d="M 0.714844 0 L 3.597656 0 L 3.597656 -4.703125 L 3.582031 -5.554688 L 3.597656 -5.554688 L 3.917969 -4.8125 L 6.117188 0 L 9.207031 0 L 9.207031 -10.414062 L 6.339844 -10.414062 L 6.339844 -5.652344 L 6.355469 -4.800781 L 6.324219 -4.800781 L 6.019531 -5.554688 L 3.820312 -10.414062 L 0.714844 -10.414062 Z M 0.714844 0 "/></g></g></g><g fill="#f48321" fill-opacity="1"><g transform="translate(240.60325, 251.613514)"><g><path d="M 4.660156 0.238281 C 7.570312 0.238281 8.789062 -1.257812 8.789062 -4.519531 L 8.789062 -5.585938 L 4.675781 -5.585938 L 4.675781 -3.527344 L 5.933594 -3.527344 L 5.933594 -3.441406 C 5.90625 -2.503906 5.472656 -2.097656 4.6875 -2.097656 C 3.917969 -2.097656 3.472656 -2.632812 3.472656 -3.847656 L 3.472656 -6.535156 C 3.472656 -7.640625 3.933594 -8.144531 4.644531 -8.144531 C 5.457031 -8.144531 5.792969 -7.597656 5.792969 -6.800781 L 5.792969 -6.523438 L 8.761719 -6.523438 L 8.761719 -6.5625 C 8.761719 -9.152344 7.429688 -10.636719 4.644531 -10.636719 C 1.875 -10.636719 0.460938 -9.109375 0.460938 -6.101562 L 0.460938 -4.28125 C 0.460938 -1.289062 1.890625 0.238281 4.660156 0.238281 Z M 4.660156 0.238281 "/></g></g></g></svg>